<svg width="28" height="28" viewBox="0 0 28 28" fill="none" xmlns="http://www.w3.org/2000/svg">
<path fill-rule="evenodd" clip-rule="evenodd" d="M1.75 14C1.75 17.2489 3.04062 20.3647 5.33794 22.6621C7.63526 24.9594 10.7511 26.25 14 26.25C17.2489 26.25 20.3647 24.9594 22.6621 22.6621C24.9594 20.3647 26.25 17.2489 26.25 14C26.25 10.7511 24.9594 7.63526 22.6621 5.33794C20.3647 3.04062 17.2489 1.75 14 1.75C10.7511 1.75 7.63526 3.04062 5.33794 5.33794C3.04062 7.63526 1.75 10.7511 1.75 14ZM28 14C28 17.713 26.525 21.274 23.8995 23.8995C21.274 26.525 17.713 28 14 28C10.287 28 6.72601 26.525 4.10051 23.8995C1.475 21.274 0 17.713 0 14C0 10.287 1.475 6.72601 4.10051 4.10051C6.72601 1.475 10.287 0 14 0C17.713 0 21.274 1.475 23.8995 4.10051C26.525 6.72601 28 10.287 28 14ZM14.875 7.875C14.875 7.64294 14.7828 7.42038 14.6187 7.25628C14.4546 7.09219 14.2321 7 14 7C13.7679 7 13.5454 7.09219 13.3813 7.25628C13.2172 7.42038 13.125 7.64294 13.125 7.875V18.0128L9.3695 14.2555C9.2052 14.0912 8.98236 13.9989 8.75 13.9989C8.51764 13.9989 8.2948 14.0912 8.1305 14.2555C7.9662 14.4198 7.87389 14.6426 7.87389 14.875C7.87389 15.1074 7.9662 15.3302 8.1305 15.4945L13.3805 20.7445C13.4618 20.826 13.5583 20.8906 13.6646 20.9347C13.7709 20.9789 13.8849 21.0016 14 21.0016C14.1151 21.0016 14.2291 20.9789 14.3354 20.9347C14.4417 20.8906 14.5382 20.826 14.6195 20.7445L19.8695 15.4945C20.0338 15.3302 20.1261 15.1074 20.1261 14.875C20.1261 14.6426 20.0338 14.4198 19.8695 14.2555C19.7052 14.0912 19.4824 13.9989 19.25 13.9989C19.0176 13.9989 18.7948 14.0912 18.6305 14.2555L14.875 18.0128V7.875Z" fill="white"/>
</svg>
